<svg viewBox="0 0 200 200" xmlns="http://www.w3.org/2000/svg">
  <defs>
    <linearGradient id="gujhiyaGrad" x1="0%" y1="0%" x2="100%" y2="100%">
      <stop offset="0%" style="stop-color:#F5DEB3;stop-opacity:1" />
      <stop offset="100%" style="stop-color:#DAA520;stop-opacity:1" />
    </linearGradient>
  </defs>
  
  <!-- Main semi-circular body -->
  <path d="M 50 100 Q 50 50 100 50 Q 150 50 150 100 Z" fill="url(#gujhiyaGrad)"/>
  
  <!-- Dry fruit filling visible -->
  <circle cx="75" cy="85" r="4" fill="#8B4513"/>
  <circle cx="105" cy="80" r="4" fill="#DAA520"/>
  <circle cx="85" cy="100" r="3" fill="#8B4513"/>
  <circle cx="125" cy="90" r="4" fill="#8B4513"/>
  <circle cx="100" cy="95" r="3" fill="#DAA520"/>
  
  <!-- Ghee shine -->
  <ellipse cx="75" cy="65" rx="15" ry="12" fill="rgba(255,255,255,0.35)"/>
  
  <!-- Bottom texture -->
  <path d="M 70 100 Q 75 110 80 100 M 90 100 Q 95 110 100 100 M 110 100 Q 115 110 120 100 M 130 100 Q 135 110 140 100" stroke="#D2B48C" stroke-width="2" fill="none" opacity="0.6"/>
  
  <!-- Shadow -->
  <ellipse cx="100" cy="105" rx="50" ry="12" fill="rgba(0,0,0,0.2)"/>
</svg>